<?xml version="1.0" encoding="utf-8"?><!-- Uploaded to: SVG Repo, www.svgrepo.com, Generator: SVG Repo Mixer Tools -->
<svg version="1.1" id="Uploaded to svgrepo.com" xmlns="http://www.w3.org/2000/svg" xmlns:xlink="http://www.w3.org/1999/xlink" 
	 width="800px" height="800px" viewBox="0 0 32 32" xml:space="preserve">
<style type="text/css">
	.blueprint_een{fill:#111918;}
</style>
<path class="blueprint_een" d="M25,29.5c0,0.828-0.672,1.5-1.5,1.5S22,30.328,22,29.5s0.672-1.5,1.5-1.5S25,28.672,25,29.5z
	 M10.5,28C9.672,28,9,28.672,9,29.5S9.672,31,10.5,31s1.5-0.672,1.5-1.5S11.328,28,10.5,28z M30.007,9.003
	c0.65,0,1.127,0.611,0.97,1.242l-2.991,11.997C27.874,22.687,27.474,23,27.015,23H9.28l0.5,2H25c0.553,0,1,0.448,1,1s-0.447,1-1,1
	H8.985c-0.459,0-0.859-0.313-0.97-0.758L3.22,7H1C0.447,7,0,6.552,0,6s0.447-1,1-1h2.998c0.459,0,0.859,0.312,0.97,0.757L5.78,9
	L30.007,9.003z M28.72,11H6.28l2.5,10h17.438L28.72,11z M11,13h-1v1h1V13z M13,13h-1v1h1V13z M15,13h-1v1h1V13z M17,13h-1v1h1V13z
	 M19,13h-1v1h1V13z M21,13h-1v1h1V13z M23,13h-1v1h1V13z M25,13h-1v1h1V13z M25,15h-1v1h1V15z M25,17h-1v1h1V17z M23,15h-1v1h1V15z
	 M21,15h-1v1h1V15z M19,15h-1v1h1V15z M17,15h-1v1h1V15z M15,15h-1v1h1V15z M13,15h-1v1h1V15z M11,15h-1v1h1V15z M11,18v-1h-1v1H11z
	 M13,17h-1v1h1V17z M15,17h-1v1h1V17z M17,17h-1v1h1V17z M19,17h-1v1h1V17z M21,17h-1v1h1V17z M23,17h-1v1h1V17z"/>
</svg>